<?xml version="1.0" encoding="utf-8"?>
<!-- Generator: Adobe Illustrator 24.0.0, SVG Export Plug-In . SVG Version: 6.00 Build 0)  -->
<svg version="1.1" id="Layer_1" xmlns="http://www.w3.org/2000/svg" xmlns:xlink="http://www.w3.org/1999/xlink" x="0px" y="0px"
	 viewBox="0 0 150 150" style="enable-background:new 0 0 150 150;" xml:space="preserve">
<style type="text/css">
	.st0{fill:none;stroke:#FFFFFF;stroke-width:5;stroke-linecap:round;stroke-miterlimit:10;}
</style>
<path class="st0" d="M55.07,87.36c-20.18-4.7-37-14.56-37-14.56v-20c0-3.31,2.69-6,6.01-6h102.1c3.32,0,6.01,2.69,6.01,6v20
	c0,0-17.34,9.81-37.74,14.53"/>
<path class="st0" d="M126.18,76.8v41c0,3.31-2.69,6-6.01,6H29.08c-3.32,0-6.01-2.69-6.01-6v-41"/>
<path class="st0" d="M81.14,96.8H68.12c-1.66,0-3-1.34-3-3v-11c0-1.66,1.34-3,3-3h13.02c1.66,0,3,1.34,3,3v11
	C84.14,95.46,82.79,96.8,81.14,96.8z"/>
<path class="st0" d="M93.65,46.8V36.65c0-5.99-4.86-10.85-10.86-10.85H66.46c-6,0-10.86,4.86-10.86,10.85V46.8"/>
</svg>
