<?xml version="1.0" encoding="utf-8"?>
<!-- Generator: Adobe Illustrator 24.0.0, SVG Export Plug-In . SVG Version: 6.00 Build 0)  -->
<svg version="1.1" id="Layer_1" xmlns="http://www.w3.org/2000/svg" xmlns:xlink="http://www.w3.org/1999/xlink" x="0px" y="0px"
	 viewBox="0 0 50 50" style="enable-background:new 0 0 50 50;" xml:space="preserve">
<style type="text/css">
	.st0{fill:#F2F2F2;}
	.st1{fill:#A8B2C6;}
	.st2{fill:none;stroke:#4D4D4D;stroke-width:2.08;stroke-linecap:round;stroke-linejoin:round;stroke-miterlimit:10;}
	.st3{fill:#F8B0B4;}
	.st4{fill:#F37C7E;}
	.st5{fill:#DC7173;}
</style>
<path class="st0" d="M39.54,15.34c0,1.96-1.47,3.11-1.47,3.11l-2.43,2.43l1.31,1.31l4.54-4.54l-0.68-2.51L39.54,15.34z"/>
<path class="st0" d="M20.95,35.22c0,0,0.1-0.1-0.71,0.71c-0.82,0.82-1.64,0.98-1.64,0.98l-7.2,2.29l1.47,1.47l8.91-2.13l1.89-2.45
	L20.95,35.22z"/>
<polygon class="st1" points="7.64,41.65 9.02,36.5 12.8,40.27 "/>
<path class="st2" d="M21.24,38.73L8.58,41.98c-0.66,0.15-1.26-0.44-1.11-1.11l3.26-12.65c0.12-0.52,0.38-0.99,0.76-1.37L30.02,8.34
	c1.1-1.1,2.89-1.1,3.99,0l7.14,7.13c1.1,1.1,1.1,2.88,0,3.98L22.61,37.97C22.23,38.35,21.76,38.61,21.24,38.73z"/>
<rect x="19.05" y="10.5" transform="matrix(0.7075 0.7068 -0.7068 0.7075 22.1013 -9.3961)" class="st3" width="6.71" height="23.01"/>
<rect x="23.95" y="14.58" transform="matrix(0.7075 0.7068 -0.7068 0.7075 26.1852 -11.0912)" class="st4" width="5.09" height="23.01"/>
<rect x="27.99" y="17.11" transform="matrix(0.7075 0.7068 -0.7068 0.7075 28.7172 -12.1422)" class="st5" width="2.08" height="23.01"/>
</svg>
