<?xml version="1.0" encoding="utf-8"?>
<!-- Generator: Adobe Illustrator 24.0.0, SVG Export Plug-In . SVG Version: 6.00 Build 0)  -->
<svg version="1.1" id="Layer_1" xmlns="http://www.w3.org/2000/svg" xmlns:xlink="http://www.w3.org/1999/xlink" x="0px" y="0px"
	 viewBox="0 0 25 25" style="enable-background:new 0 0 25 25;" xml:space="preserve">
<style type="text/css">
	.st0{fill:#FFFFFF;}
</style>
<g>
	<g>
		<path class="st0" d="M4.65,17.31c0.09,0.09,0.21,0.13,0.32,0.13c0.12,0,0.24-0.04,0.32-0.13l4.27-4.27l2.56,2.56
			c0.09,0.09,0.21,0.13,0.32,0.13c0.12,0,0.24-0.04,0.32-0.13l2.63-2.62l4.21,4.21c0.09,0.09,0.21,0.13,0.32,0.13
			c0.12,0,0.24-0.04,0.32-0.13c0.18-0.18,0.18-0.47,0-0.65l-4.21-4.21l4.27-4.27c0.18-0.18,0.18-0.47,0-0.65s-0.47-0.18-0.65,0
			L15.08,12l-2.63,2.62l-2.56-2.56L5.36,7.53c-0.18-0.18-0.47-0.18-0.65,0C4.53,7.71,4.53,8,4.71,8.18l4.21,4.21l-4.27,4.27
			C4.47,16.84,4.47,17.13,4.65,17.31z"/>
	</g>
	<path class="st0" d="M22.31,19.57H2.69c-1.1,0-1.99-0.89-1.99-1.99V7.42c0-1.1,0.89-1.99,1.99-1.99h19.62
		c1.1,0,1.99,0.89,1.99,1.99v10.15C24.3,18.67,23.41,19.57,22.31,19.57z M2.69,6.11c-0.72,0-1.31,0.59-1.31,1.31v10.15
		c0,0.72,0.59,1.31,1.31,1.31h19.62c0.72,0,1.31-0.59,1.31-1.31V7.42c0-0.72-0.59-1.31-1.31-1.31H2.69z"/>
</g>
</svg>
