<?xml version="1.0" encoding="utf-8"?>
<!-- Generator: Adobe Illustrator 24.0.0, SVG Export Plug-In . SVG Version: 6.00 Build 0)  -->
<svg version="1.1" id="Layer_1" xmlns="http://www.w3.org/2000/svg" xmlns:xlink="http://www.w3.org/1999/xlink" x="0px" y="0px"
	 viewBox="0 0 25 25" style="enable-background:new 0 0 25 25;" xml:space="preserve">
<style type="text/css">
	.st0{fill:#CCCCCC;}
</style>
<g>
	<path class="st0" d="M23.04,5.24h-2.1c-0.41-1.22-1.54-2.1-2.89-2.1c-1.35,0-2.49,0.89-2.89,2.1H1.96C1.43,5.24,1,5.67,1,6.2
		s0.43,0.96,0.96,0.96h13.2c0.41,1.22,1.54,2.1,2.89,2.1c1.35,0,2.49-0.89,2.89-2.1h2.1C23.57,7.16,24,6.73,24,6.2
		S23.57,5.24,23.04,5.24z M18.05,7.34c-0.63,0-1.14-0.51-1.14-1.14s0.51-1.14,1.14-1.14s1.14,0.51,1.14,1.14S18.68,7.34,18.05,7.34z
		"/>
	<path class="st0" d="M23.04,11.54H8.27c-0.41-1.22-1.54-2.1-2.89-2.1s-2.49,0.89-2.89,2.1H1.96C1.43,11.54,1,11.97,1,12.5
		s0.43,0.96,0.96,0.96h0.52c0.41,1.22,1.54,2.1,2.89,2.1s2.49-0.89,2.89-2.1h14.77c0.53,0,0.96-0.43,0.96-0.96
		S23.57,11.54,23.04,11.54z M5.38,13.64c-0.63,0-1.14-0.51-1.14-1.14s0.51-1.14,1.14-1.14s1.14,0.51,1.14,1.14S6,13.64,5.38,13.64z"
		/>
	<path class="st0" d="M23.04,17.84h-6.83c-0.41-1.22-1.54-2.1-2.89-2.1s-2.49,0.89-2.89,2.1H1.96C1.43,17.84,1,18.27,1,18.8
		s0.43,0.96,0.96,0.96h8.47c0.41,1.22,1.54,2.1,2.89,2.1s2.49-0.89,2.89-2.1h6.83c0.53,0,0.96-0.43,0.96-0.96
		S23.57,17.84,23.04,17.84z M13.32,19.94c-0.63,0-1.14-0.51-1.14-1.14s0.51-1.14,1.14-1.14c0.63,0,1.14,0.51,1.14,1.14
		S13.95,19.94,13.32,19.94z"/>
</g>
</svg>
