<?xml version="1.0" encoding="utf-8"?>
<!-- Generator: Adobe Illustrator 24.0.0, SVG Export Plug-In . SVG Version: 6.00 Build 0)  -->
<svg version="1.1" id="Layer_1" xmlns="http://www.w3.org/2000/svg" xmlns:xlink="http://www.w3.org/1999/xlink" x="0px" y="0px"
	 viewBox="0 0 25 25" style="enable-background:new 0 0 25 25;" xml:space="preserve">
<style type="text/css">
	.st0{fill:#FFFFFF;}
</style>
<g>
	<g>
		<path class="st0" d="M22.92,13.74c-1.3-3.66-4.01-6.51-7.66-8.09c-0.03,0.28-0.14,0.56-0.34,0.77c3.43,1.48,5.98,4.16,7.2,7.6
			c0.06,0.17,0.23,0.28,0.4,0.28c0.05,0,0.09-0.01,0.14-0.02C22.88,14.21,23,13.96,22.92,13.74z"/>
	</g>
	<path class="st0" d="M19.09,5.56c0.01,0,0.01,0,0.02-0.01c0.04-0.01,0.07-0.04,0.11-0.06c0.01,0,0.01-0.01,0.02-0.01
		c0.03-0.03,0.06-0.06,0.08-0.09c0-0.01,0.01-0.01,0.01-0.02c0.02-0.04,0.04-0.08,0.05-0.13c0.05-0.23-0.1-0.45-0.33-0.5
		c-0.16-0.03-0.31-0.06-0.47-0.08c-0.05-0.01-0.1-0.01-0.15-0.02c-0.11-0.01-0.21-0.03-0.32-0.04c-0.06-0.01-0.12-0.01-0.19-0.01
		c-0.1-0.01-0.19-0.01-0.29-0.02c-0.07,0-0.13,0-0.2,0c-0.09,0-0.18,0-0.26,0c-0.1,0-0.21,0-0.31,0.01c-0.07,0-0.15,0.01-0.22,0.01
		c-0.11,0.01-0.21,0.02-0.32,0.03c-0.07,0.01-0.14,0.01-0.21,0.02c-0.12,0.01-0.24,0.03-0.35,0.05c-0.06,0.01-0.12,0.02-0.18,0.03
		c-0.18,0.03-0.35,0.07-0.53,0.11c0.17,0.25,0.24,0.54,0.22,0.82c0.16-0.04,0.32-0.07,0.48-0.09c0.05-0.01,0.1-0.02,0.16-0.02
		c0.11-0.02,0.21-0.03,0.32-0.04c0.06-0.01,0.12-0.01,0.19-0.02c0.1-0.01,0.19-0.02,0.29-0.02c0.07,0,0.13-0.01,0.2-0.01
		c0.09,0,0.18-0.01,0.28-0.01c0.03,0,0.05,0,0.08,0c0.05,0,0.11,0,0.16,0c0.06,0,0.12,0,0.18,0c0.09,0,0.17,0.01,0.26,0.02
		c0.06,0,0.11,0.01,0.17,0.01c0.1,0.01,0.19,0.02,0.29,0.03c0.05,0.01,0.09,0.01,0.14,0.02c0.14,0.02,0.28,0.04,0.42,0.07
		c0.03,0.01,0.06,0.01,0.09,0.01c0,0,0,0,0,0C19,5.58,19.05,5.57,19.09,5.56z"/>
	<g>
		<g>
			<path class="st0" d="M7.2,4.53C6.08,4.69,5.04,5,4.13,5.45c-0.21,0.1-0.3,0.36-0.19,0.57c0.1,0.21,0.36,0.29,0.57,0.19
				C5.34,5.8,6.28,5.52,7.3,5.37C7.18,5.11,7.14,4.82,7.2,4.53z"/>
		</g>
		<g>
			<path class="st0" d="M9.67,4.41c0.09,0.27,0.09,0.56-0.01,0.84c0.71,0.03,1.44,0.11,2.17,0.24c0.19-0.1,0.38-0.2,0.57-0.29
				l0.17-0.08L12.83,5c0.02-0.05,0.04-0.1,0.07-0.13C11.83,4.59,10.74,4.44,9.67,4.41z"/>
		</g>
	</g>
	<g>
		<g>
			<path class="st0" d="M8.95,3.62c0.11,0.05,0.21,0.11,0.31,0.19C9.41,3.4,9.58,3,9.79,2.62C9.9,2.42,9.82,2.16,9.61,2.05
				C9.41,1.94,9.15,2.02,9.04,2.22c-0.22,0.42-0.42,0.85-0.58,1.3C8.62,3.52,8.79,3.55,8.95,3.62z"/>
			<g>
				<path class="st0" d="M12.02,3.1c-0.68,0-1.35,0.07-1.99,0.2c-0.1,0.22-0.2,0.45-0.28,0.68L9.67,4.18
					c0.75-0.2,1.53-0.31,2.34-0.31c1,0,1.96,0.16,2.86,0.46l0.06-0.01c0.48-0.11,0.95-0.18,1.43-0.22
					C15.05,3.46,13.57,3.1,12.02,3.1z"/>
			</g>
		</g>
	</g>
	<path class="st0" d="M8.69,8.24C8.64,7.5,8.66,6.77,8.74,6.06C8.49,6.12,8.22,6.1,7.96,6C7.93,5.99,7.91,5.97,7.88,5.96
		c-0.1,0.79-0.11,1.6-0.05,2.43C8.1,8.23,8.4,8.18,8.69,8.24z"/>
	<path class="st0" d="M9.5,8.75c0.02,0.03,0.04,0.07,0.06,0.1c1.07-1.04,2.24-1.87,3.46-2.44c-0.03-0.04-0.07-0.07-0.1-0.12
		c-0.13-0.19-0.21-0.4-0.23-0.62c-0.02-0.01-0.05-0.01-0.07-0.02c-1.13,0.54-2.6,1.45-3.71,2.63C9.14,8.38,9.35,8.54,9.5,8.75z"/>
	<path class="st0" d="M5.75,14.89c-0.28,0-0.56-0.09-0.8-0.27c-0.8,2.41-0.94,4.9-0.3,7.1c0.05,0.19,0.22,0.31,0.41,0.31
		c0.04,0,0.08-0.01,0.12-0.02c0.22-0.07,0.35-0.3,0.29-0.52C4.87,19.44,5,17.14,5.75,14.89z"/>
	<g>
		<path class="st0" d="M4.98,12.56c0.05-0.03,0.1-0.06,0.15-0.09c-0.97-1.39-1.68-3.02-1.93-4.89c-0.03-0.23-0.24-0.4-0.48-0.36
			C2.5,7.25,2.33,7.47,2.37,7.7c0.28,2.09,1.08,3.89,2.18,5.41C4.64,12.9,4.78,12.7,4.98,12.56z"/>
		<g>
			<g>
				<path class="st0" d="M2.83,13.05c0-0.54,0.05-1.07,0.14-1.58c-0.19-0.4-0.36-0.81-0.51-1.23c-0.26,0.89-0.41,1.83-0.41,2.8
					c0,2.04,0.62,3.94,1.68,5.52c0.01-0.45,0.04-0.91,0.1-1.36C3.19,15.96,2.83,14.54,2.83,13.05z"/>
			</g>
			<path class="st0" d="M3.94,8.68c0.51-0.93,1.17-1.76,1.95-2.47c-0.41,0.13-0.8,0.28-1.16,0.46c-0.13,0.06-0.27,0.1-0.42,0.1
				c-0.01,0-0.02,0-0.02,0C4.09,7.02,3.9,7.28,3.72,7.55C3.77,7.93,3.85,8.31,3.94,8.68z"/>
		</g>
	</g>
	<g>
		<g>
			<path class="st0" d="M12.56,17.79c-0.31-0.1-0.62-0.2-0.93-0.32c-1.64-0.64-3.38-1.67-4.86-3.09c-0.08,0.1-0.17,0.2-0.28,0.28
				c-0.14,0.1-0.29,0.16-0.44,0.2c1.59,1.57,3.49,2.71,5.27,3.4c0.33,0.13,0.65,0.24,0.98,0.34C12.29,18.3,12.38,18.02,12.56,17.79z
				"/>
		</g>
		<g>
			<path class="st0" d="M22.32,16.83c-0.15-0.18-0.42-0.2-0.6-0.05c-1.65,1.37-4.16,1.89-6.88,1.52c0.06,0.29,0.01,0.59-0.12,0.85
				c0.62,0.09,1.23,0.13,1.82,0.13c2.24,0,4.26-0.63,5.73-1.85C22.45,17.28,22.47,17.01,22.32,16.83z"/>
			<g>
				<path class="st0" d="M21.47,9.92c-0.48-1.46-1.3-2.77-2.35-3.84c-0.05,0.01-0.11,0.01-0.16,0.01c-0.06,0-0.13-0.01-0.19-0.02
					c-0.31-0.06-0.62-0.1-0.94-0.13c0.65,0.53,1.22,1.15,1.7,1.83C20.25,8.43,20.9,9.15,21.47,9.92z"/>
				<path class="st0" d="M21.2,13.14c-0.01,1.43-0.35,2.78-0.95,3.98c0.42-0.21,0.81-0.45,1.15-0.73c0,0,0,0,0.01,0
					c0.21-0.59,0.36-1.2,0.46-1.83c-0.1-0.1-0.18-0.22-0.22-0.35C21.51,13.84,21.36,13.48,21.2,13.14z"/>
			</g>
		</g>
	</g>
	<g>
		<path class="st0" d="M12.36,18.16c0.08-0.25,0.24-0.48,0.47-0.65c0.02-0.01,0.03-0.02,0.05-0.03c-1.05-1.06-1.97-2.34-2.69-3.79
			c-0.5-1-0.87-2.03-1.13-3.06c-0.27,0.14-0.57,0.19-0.85,0.13c0.27,1.11,0.68,2.22,1.22,3.31C10.21,15.64,11.21,17.02,12.36,18.16z
			"/>
		<g>
			<g>
				<path class="st0" d="M18.92,20.21c0.28-0.27,0.55-0.56,0.8-0.86c-0.43,0.13-0.88,0.23-1.34,0.31C18.25,19.78,18.13,19.89,18,20
					C18.3,20.09,18.61,20.16,18.92,20.21z"/>
				<path class="st0" d="M16.04,21.29c-1.22,0.6-2.58,0.93-4.03,0.93c-2.47,0-4.72-0.98-6.37-2.57c0.04,0.41,0.1,0.8,0.19,1.19
					C7.54,22.19,9.68,23,12.02,23c1.81,0,3.52-0.49,4.98-1.34C16.68,21.55,16.36,21.43,16.04,21.29z"/>
			</g>
			<path class="st0" d="M19.02,20.75c-1.49-0.23-2.93-0.82-4.25-1.71c-0.09,0.22-0.23,0.41-0.44,0.56
				c-0.04,0.03-0.09,0.05-0.13,0.08c1.44,0.99,3.03,1.65,4.69,1.91c0.02,0,0.04,0.01,0.06,0.01c0.21,0,0.39-0.15,0.42-0.36
				C19.41,21.01,19.25,20.79,19.02,20.75z"/>
		</g>
	</g>
</g>
</svg>
