<?xml version="1.0" encoding="utf-8"?>
<!-- Generator: Adobe Illustrator 24.0.0, SVG Export Plug-In . SVG Version: 6.00 Build 0)  -->
<svg version="1.1" id="Layer_1" xmlns="http://www.w3.org/2000/svg" xmlns:xlink="http://www.w3.org/1999/xlink" x="0px" y="0px"
	 viewBox="0 0 25 25" style="enable-background:new 0 0 25 25;" xml:space="preserve">
<style type="text/css">
	.st0{fill:none;stroke:#FFFFFF;stroke-width:0.5182;stroke-miterlimit:10;}
</style>
<g id="Group_45_4_" transform="translate(-902.594 -436.339)">
	<path id="Path_172_4_" class="st0" d="M910.09,439.63c0.41,0.68,1.75,2.87,2.42,3.95c0.22,0.36,0.15,0.82-0.17,1.1l-1.96,1.7
		c-0.22,0.19-0.28,0.49-0.15,0.75c0.38,0.79,1.31,2.51,2.72,3.92c1.44,1.44,3.36,2.5,4.22,2.93c0.26,0.13,0.57,0.07,0.76-0.15
		l1.73-2.02c0.27-0.32,0.73-0.39,1.09-0.18l4.07,2.36c0.16,0.09,0.24,0.27,0.22,0.45c-0.09,0.61-0.32,1.95-0.58,2.27
		c-0.34,0.41-2.09,1.84-4.2,1.83s-6.68-1.76-9.97-5.29s-4.9-7.66-4.71-9.89s2.02-3.59,2.02-3.59c0.68-0.28,1.41-0.41,2.15-0.37
		C909.87,439.42,910.01,439.5,910.09,439.63z"/>
</g>
</svg>
