<?xml version="1.0" encoding="utf-8"?>
<!-- Generator: Adobe Illustrator 24.0.0, SVG Export Plug-In . SVG Version: 6.00 Build 0)  -->
<svg version="1.1" id="Layer_1" xmlns="http://www.w3.org/2000/svg" xmlns:xlink="http://www.w3.org/1999/xlink" x="0px" y="0px"
	 viewBox="0 0 25 25" style="enable-background:new 0 0 25 25;" xml:space="preserve">
<style type="text/css">
	.st0{fill:#CCCCCC;}
</style>
<path class="st0" d="M22.8,20.84l-5.65-5.65c1-1.39,1.59-3.09,1.59-4.93c0-4.67-3.8-8.47-8.47-8.47s-8.47,3.8-8.47,8.47
	s3.8,8.47,8.47,8.47c1.84,0,3.54-0.59,4.93-1.59l5.65,5.65c0.27,0.27,0.63,0.41,0.98,0.41c0.35,0,0.71-0.14,0.98-0.41
	C23.34,22.26,23.34,21.38,22.8,20.84z M10.27,15.97c-3.14,0-5.7-2.56-5.7-5.7s2.56-5.7,5.7-5.7s5.7,2.56,5.7,5.7
	S13.41,15.97,10.27,15.97z"/>
</svg>
