<?xml version="1.0" encoding="utf-8"?>
<!-- Generator: Adobe Illustrator 24.0.0, SVG Export Plug-In . SVG Version: 6.00 Build 0)  -->
<svg version="1.1" id="Layer_1" xmlns="http://www.w3.org/2000/svg" xmlns:xlink="http://www.w3.org/1999/xlink" x="0px" y="0px"
	 viewBox="0 0 150 150" style="enable-background:new 0 0 150 150;" xml:space="preserve">
<style type="text/css">
	.st0{fill:#B3B3B3;}
</style>
<g>
	<path class="st0" d="M127.34,59.7c1.1-23.76-18.2-36.76-34.87-36.76c-15.14,0-27,10.08-31.07,18.12
		c-2.89-0.65-11.57-0.66-17.92,3.05c-6.4,3.75-10.47,11.24-11.36,14.14c-13.41-0.2-27.87,8.41-27.87,27.22
		c0,18.82,16.48,25.54,25.43,25.54h12.23c2.42,0,4.38-1.96,4.38-4.38v0c0-2.42-1.96-4.38-4.38-4.38H29.68
		c-6.47,0-11.59-2.9-14.41-8.18c-3.2-5.98-2.86-13.73,0.84-19.29c2.34-3.52,6.89-7.47,15.49-7.47c0.94,0,1.92,0.05,2.95,0.15
		l3.64-0.01c0,0,2.8-11.75,9.98-15.82c7.19-4.07,17.88-0.81,17.88-0.81l2.18-3.38c2.08-4.5,10.52-15.74,24.23-15.74
		c12.63,0,26.2,9.46,26.2,31.19v3.31l3.18,0.9c14.9,4.23,14.44,16.16,13.94,19.71c-1.06,7.58-6.72,15.42-14.37,15.42h-10.43
		c-2.42,0-4.38,1.96-4.38,4.38v0c0,2.42,1.96,4.38,4.38,4.38h10.43c11.32,0,23.75-12.58,23.75-24.16
		C145.16,75.26,142.04,65.32,127.34,59.7z"/>
	<path class="st0" d="M55.96,97.74c1.4,1.4,3.67,1.4,5.07,0L72,86.77v35.88c0,1.87,1.37,3.54,3.23,3.72
		c2.14,0.2,3.94-1.47,3.94-3.57V86.77l10.86,10.86c1.32,1.32,3.47,1.54,4.92,0.35c1.66-1.37,1.74-3.83,0.26-5.31l-17.3-17.3
		c-1.28-1.28-3.35-1.28-4.63,0l-17.3,17.3C54.56,94.07,54.56,96.34,55.96,97.74z"/>
</g>
</svg>
